# xmcd CD database file
#
# Track frame offsets:
#	150
#	22340
#	41070
#	63260
#
# Disc length: 1090 seconds
#
# Revision: 4
# Processed by: cddbd v1.5.1PL0 Copyright (c) Steve Scherf et al.
# Submitted via: CDex 1.51
#
DISCID=33044004
DTITLE=川嶋　あい - 絶望と希望 (EP)
DYEAR=2005
DGENRE=Pop
TTITLE0=絶望と希望
TTITLE1=天使降臨
TTITLE2=絶望と希望 (Instrumental)
TTITLE3=天使降臨 (Instrumental)
EXTD=YEAR: 2005
EXTT0=
EXTT1=
EXTT2=
EXTT3=
PLAYORDER=
